<?xml version="1.0" encoding="UTF-8" standalone="no"?>
<!-- Generator: Adobe Illustrator 16.0.0, SVG Export Plug-In . SVG Version: 6.00 Build 0)  -->

<svg
   xmlns:dc="http://purl.org/dc/elements/1.1/"
   xmlns:cc="http://creativecommons.org/ns#"
   xmlns:rdf="http://www.w3.org/1999/02/22-rdf-syntax-ns#"
   xmlns:svg="http://www.w3.org/2000/svg"
   xmlns="http://www.w3.org/2000/svg"
   xmlns:sodipodi="http://sodipodi.sourceforge.net/DTD/sodipodi-0.dtd"
   xmlns:inkscape="http://www.inkscape.org/namespaces/inkscape"
   version="1.1"
   id="Layer_1"
   x="0px"
   y="0px"
   width="390.35504"
   height="389.01871"
   viewBox="0 0 390.35504 389.01871"
   enable-background="new 0 0 825.96 441.07"
   xml:space="preserve"
   inkscape:version="0.91 r13725"
   sodipodi:docname="ComputerIconWithText.svg"
   inkscape:export-filename="/Users/Alistair/Documents/CompSoc/General/Assets/ComputerIconWithText.png"
   inkscape:export-xdpi="180"
   inkscape:export-ydpi="180"><metadata
     id="metadata447"><rdf:RDF><cc:Work
         rdf:about=""><dc:format>image/svg+xml</dc:format><dc:type
           rdf:resource="http://purl.org/dc/dcmitype/StillImage" /><dc:title></dc:title></cc:Work></rdf:RDF></metadata><defs
     id="defs445" /><sodipodi:namedview
     pagecolor="#ffffff"
     bordercolor="#666666"
     borderopacity="1"
     objecttolerance="10"
     gridtolerance="10"
     guidetolerance="10"
     inkscape:pageopacity="0"
     inkscape:pageshadow="2"
     inkscape:window-width="1920"
     inkscape:window-height="1013"
     id="namedview443"
     showgrid="false"
     fit-margin-top="10"
     fit-margin-left="10"
     fit-margin-right="10"
     fit-margin-bottom="10"
     inkscape:zoom="1.8765776"
     inkscape:cx="178.88885"
     inkscape:cy="200.19996"
     inkscape:window-x="-9"
     inkscape:window-y="-9"
     inkscape:window-maximized="1"
     inkscape:current-layer="layer1" /><g
     inkscape:groupmode="layer"
     id="layer1"
     inkscape:label="Layer 1"
     transform="translate(33.153238,-1.4456166e-5)"><text
       xml:space="preserve"
       style="font-style:normal;font-variant:normal;font-weight:600;font-stretch:normal;font-size:87.5px;line-height:125%;font-family:Jura;-inkscape-font-specification:'Jura, Semi-Bold';text-align:start;letter-spacing:0px;word-spacing:0px;writing-mode:lr-tb;text-anchor:start;fill:#6d6e71;fill-opacity:1;stroke:none;stroke-width:1px;stroke-linecap:butt;stroke-linejoin:miter;stroke-opacity:1"
       x="-29.12562"
       y="378.24966"
       id="text4181"
       sodipodi:linespacing="125%"><tspan
         sodipodi:role="line"
         id="tspan4183"
         x="-29.12562"
         y="378.24966"
         style="font-style:normal;font-variant:normal;font-weight:600;font-stretch:normal;font-size:87.5px;line-height:125%;font-family:Jura;-inkscape-font-specification:'Jura, Semi-Bold';text-align:start;writing-mode:lr-tb;text-anchor:start;fill:#6d6e71;fill-opacity:1">COMPSOC</tspan></text>
</g><g
     inkscape:groupmode="layer"
     id="layer2"
     inkscape:label="Layer 2"
     transform="translate(33.153238,-1.4456166e-5)"><g
       id="g4186"
       transform="translate(-4.4396441,1.4557262e-5)"><rect
         y="32.673748"
         x="49.824757"
         height="120.96489"
         width="228.60765"
         id="rect5245"
         style="fill:#ffffff;fill-opacity:1;stroke:none;stroke-width:5;stroke-linecap:round;stroke-miterlimit:10;stroke-dasharray:none;stroke-opacity:1" /><path
         style="clip-rule:evenodd;fill:#838488;fill-rule:evenodd"
         inkscape:connector-curvature="0"
         id="path3"
         d="m 166.41581,293.51207 c -48.302,0 -96.604996,0.016 -144.900996,0 -10.685,0 -11.403,-0.722 -11.414,-11.429 -0.037,-20.098 0.172,-40.196 -0.098,-60.294 -0.1039998,-7.228 2.665,-9.938 9.894,-9.845 22.879,0.274 45.773,0.007 68.667,0.191 4.828,0.036 8.099,-0.687 10.748,-5.586 4.459996,-8.278 12.800996,-8.675 21.232996,-8.49 3.345,0.077 8.816,2.088 9.762,-1.847 1.389,-5.776 0.887,-12.222 0.034,-18.217 -0.374,-2.548 -4.408,-1.422 -6.796,-1.437 -27.907996,-0.064 -55.838996,-0.24 -83.747996,0.092 -7.631,0.099 -10.374,-2.476 -10.344,-10.135 0.221,-48.858 0.21,-97.709003 0.037,-146.568003 -0.037,-7.119 2.44,-9.9629999 9.76,-9.947 85.416996,0.153 170.848996,0.153 256.282996,0.011 7.364,-0.011 9.698,2.965 9.668,10.042 -0.164,48.859 -0.198,97.717003 0.03,146.577003 0.037,7.755 -2.787,10.118 -10.351,10.027 -28.196,-0.34 -56.404,0.086 -84.594,-0.298 -6.825,-0.092 -9.879,1.535 -8.749,8.647 0.337,2.18 0.276,4.487 0.007,6.687 -0.666,5.289 1.729,6.653 6.702,6.611 7.399,-0.076 17.008,-2.887 21.289,4.042 7.57,12.213 18.412,9.63 29.051,9.681 18.146,0.077 36.294,0.233 54.436,-0.085 7.306,-0.128 9.954,2.752 9.856,9.885 -0.231,20.383 -0.314,40.764 0.045,61.14 0.143,7.995 -2.738,10.728 -10.777,10.678 -48.573,-0.276 -97.157,-0.133 -145.73,-0.133 z m -0.171,-70.239 c -45.481,0 -90.961996,0.12 -136.446996,-0.127 -6.474,-0.043 -8.731,1.593 -8.5,8.344 0.51,14.487 0.308,29.015 0.075,43.514 -0.075,5.063 0.887,7.446 6.803,7.441 92.070996,-0.172 184.156996,-0.159 276.218996,-0.043 5.263,0.006 7.402,-1.284 7.246,-7.021 -0.391,-14.501 -0.517,-29.029 0.04,-43.517 0.282,-7.204 -2.218,-8.775 -9.014,-8.733 -45.474,0.285 -90.962,0.142 -136.422,0.142 z m 1.617,-202.189003 c -39.626,0 -79.265996,0.146 -118.871996,-0.148 -6.497,-0.047 -8.457,1.49 -8.428,8.263 0.345,42.693 0.345,85.389003 0,128.083003 -0.045,6.879 2.215,8.203 8.518,8.188 78.687996,-0.191 157.392996,-0.211 236.078996,0.022 6.852,0.021 8.947,-1.643 8.895,-8.734 -0.346,-42.419 -0.359,-84.837003 0,-127.249003 0.077,-7.268 -2.306,-8.633 -9.005,-8.574 -39.06,0.307 -78.127,0.149 -117.187,0.149 z m 6.57,155.546003 c -18.066,0 -17.909,0 -16.831,16.412 0.262,4.041 1.646,5.284 5.509,5.193 7.523,-0.198 15.062,-0.091 22.583,-0.049 2.757,0.014 4.564,-0.432 5.201,-3.835 2.698,-14.6 0.363,-17.722 -13.954,-17.722 -0.823,10e-4 -1.661,10e-4 -2.508,10e-4 z m 47.57,34.995 c -0.082,-0.494 -0.153,-0.99 -0.247,-1.479 -36.92,0 -73.832,0 -110.729,0 0,0.488 0,0.984 0.016,1.479 36.994,0 73.966,0 110.96,0 z m -75.041,-24.606 c -2.152,-2.923 1.864,-9.639 -2.607,-9.554 -5.198,0.099 -2.298,6.738 -2.425,10.354 -0.094,3.312 -2.433,9.701 2.349,9.554 4.63,-0.149 0.872,-6.574 2.683,-10.354 z" /><path
         style="clip-rule:evenodd;fill:#fafcfb;fill-rule:evenodd"
         inkscape:connector-curvature="0"
         id="path21"
         d="m 166.24481,223.27307 c 45.46,0 90.948,0.143 136.423,-0.142 6.796,-0.042 9.296,1.529 9.014,8.733 -0.557,14.487 -0.431,29.016 -0.04,43.517 0.156,5.736 -1.983,7.026 -7.246,7.021 -92.062,-0.116 -184.148,-0.129 -276.218996,0.043 -5.916,0.005 -6.878,-2.378 -6.803,-7.441 0.232,-14.499 0.435,-29.026 -0.075,-43.514 -0.231,-6.751 2.025,-8.387 8.5,-8.344 45.483,0.248 90.963996,0.127 136.445996,0.127 z m 15.747,47.028 c 8.063,0 16.136,-0.108 24.181,0.042 3.384,0.063 4.926,-0.813 5.146,-4.605 0.872,-15.733 -12.84,-30.163 -29.144,-30.312 -16.679,-0.147 -29.952,13.36 -29.573,29.545 0.09,4.74 2.064,5.483 6.039,5.38 7.775,-0.199 15.56,-0.05 23.351,-0.05 z m 75.711,0 c 7.783,0 15.574,-0.228 23.343,0.076 4.654,0.193 6.249,-1.188 6.233,-6.056 -0.033,-16.257 -13.479,-29.35 -30.205,-28.89 -15.911,0.433 -29.219,14.628 -28.467,30.107 0.169,3.557 1.276,4.909 4.905,4.825 8.069,-0.203 16.122,-0.062 24.191,-0.062 z m -146.879,2.023 c 11.043,-0.05 19.691,-8.529 19.781,-19.397 0.108,-11.082 -8.988,-19.874 -20.342,-19.681 -10.962996,0.185 -19.356996,8.865 -19.203996,19.837 0.171,11.003 8.673,19.284 19.764996,19.241 z m -34.936996,-19.548 c 0.016,-10.927 -8.504,-19.454 -19.518,-19.53 -11.383,-0.076 -20.327,8.81 -20.057,19.935 0.266,10.723 9.176,19.224 20.057,19.144 10.973,-0.072 19.504,-8.628 19.518,-19.549 z" /><path
         style="clip-rule:evenodd;fill:#fafcfb;fill-rule:evenodd"
         inkscape:connector-curvature="0"
         id="path23"
         d="m 167.86181,21.084067 c 39.061,0 78.127,0.157 117.187,-0.148 6.699,-0.059 9.082,1.306 9.005,8.574 -0.359,42.411 -0.346,84.830003 0,127.249003 0.053,7.091 -2.043,8.754 -8.895,8.734 -78.686,-0.233 -157.391,-0.214 -236.078996,-0.022 -6.302,0.016 -8.562,-1.308 -8.518,-8.188 0.345,-42.694 0.345,-85.390003 0,-128.083003 -0.029,-6.773 1.931,-8.31 8.428,-8.263 39.606,0.293 79.245996,0.147 118.871996,0.147 z m -1.902,6.175 c -36.538,0 -73.112996,0.157 -109.650996,-0.133 -7.447,-0.064 -10.56,2.017 -10.501,9.885 0.262,37.671 0.241,75.342003 0.016,113.004003 -0.026,7.133 2.465,9.915 9.785,9.9 73.677996,-0.17 147.330996,-0.184 220.986996,0.015 7.846,0.021 10.182,-3.058 10.133,-10.446 -0.213,-37.387 -0.213,-74.780003 0,-112.167003 0.049,-7.537 -2.536,-10.261 -10.26,-10.198 -36.834,0.31 -73.672,0.14 -110.509,0.14 z" /><path
         style="clip-rule:evenodd;fill:#fafcfb;fill-rule:evenodd"
         inkscape:connector-curvature="0"
         id="path25"
         d="m 174.43181,176.63007 c 0.847,0 1.685,0 2.508,0 14.317,0 16.652,3.122 13.954,17.722 -0.637,3.403 -2.444,3.849 -5.201,3.835 -7.521,-0.042 -15.06,-0.149 -22.583,0.049 -3.862,0.091 -5.247,-1.152 -5.509,-5.193 -1.078,-16.413 -1.235,-16.413 16.831,-16.413 z" /><path
         style="clip-rule:evenodd;fill:#fafcfb;fill-rule:evenodd"
         inkscape:connector-curvature="0"
         id="path27"
         d="m 222.00181,211.62507 c -36.994,0 -73.967,0 -110.96,0 -0.016,-0.494 -0.016,-0.99 -0.016,-1.479 36.897,0 73.809,0 110.729,0 0.094,0.489 0.165,0.985 0.247,1.479 z" /><path
         style="clip-rule:evenodd;fill:#fafcfb;fill-rule:evenodd"
         inkscape:connector-curvature="0"
         id="path29"
         d="m 146.96081,187.01907 c -1.812,3.78 1.946,10.205 -2.684,10.354 -4.781,0.147 -2.442,-6.242 -2.349,-9.554 0.127,-3.616 -2.773,-10.256 2.425,-10.354 4.473,-0.085 0.456,6.631 2.608,9.554 z" /><path
         style="clip-rule:evenodd;fill:#838488;fill-rule:evenodd"
         inkscape:connector-curvature="0"
         id="path45"
         d="m 181.99181,270.30107 c -7.791,0 -15.575,-0.148 -23.351,0.05 -3.975,0.104 -5.949,-0.64 -6.039,-5.38 -0.379,-16.185 12.895,-29.692 29.573,-29.545 16.304,0.148 30.016,14.578 29.144,30.312 -0.221,3.792 -1.763,4.669 -5.146,4.605 -8.046,-0.151 -16.118,-0.042 -24.181,-0.042 z m -7.26,-11.579 c 3.601,-0.063 7.192,-0.127 10.792,-0.195 2.477,0.182 4.954,0.499 7.417,0.48 1.572,-0.008 3.907,0 4.559,-0.936 1.309,-1.918 -0.729,-3.524 -1.912,-4.941 -4.693,-5.602 -10.826,-7.642 -17.832,-6.091 -6.16,1.358 -10.688,4.896 -12.573,11.683 3.535,0 6.541,0 9.549,0 z" /><path
         style="clip-rule:evenodd;fill:#838488;fill-rule:evenodd"
         inkscape:connector-curvature="0"
         id="path47"
         d="m 257.70281,270.30107 c -8.068,0 -16.121,-0.141 -24.19,0.063 -3.629,0.084 -4.736,-1.269 -4.905,-4.825 -0.752,-15.479 12.556,-29.675 28.467,-30.107 16.727,-0.46 30.172,12.633 30.205,28.89 0.016,4.867 -1.579,6.249 -6.233,6.056 -7.77,-0.305 -15.561,-0.077 -23.344,-0.077 z m 4.354,-11.643 c 4.113,0.497 8.211,0.771 12.323,-0.085 -1.808,-11.55 -18.486,-15.469 -26.692,-8.569 -2.462,2.074 -6.466,4.297 -5.235,7.621 1.134,3.073 5.363,1.012 8.223,1.226 3.804,-0.058 7.595,-0.129 11.381,-0.193 z" /><path
         style="clip-rule:evenodd;fill:#838488;fill-rule:evenodd"
         inkscape:connector-curvature="0"
         id="path49"
         d="m 110.82381,272.32407 c -11.091996,0.043 -19.593996,-8.238 -19.765996,-19.241 -0.153,-10.972 8.241,-19.652 19.203996,-19.837 11.354,-0.193 20.451,8.599 20.342,19.681 -0.089,10.868 -8.736,19.347 -19.78,19.397 z m 8.675,-19.292 c -0.435,-5.095 -3.241,-8.641 -8.211,-8.889 -5.447,-0.262 -8.935,3.107 -8.95,8.754 0,5.243 3.345,8.479 8.345,8.506 4.983,0.037 8.048,-3.226 8.816,-8.371 z" /><path
         style="clip-rule:evenodd;fill:#838488;fill-rule:evenodd"
         inkscape:connector-curvature="0"
         id="path51"
         d="m 75.886814,252.77607 c -0.014,10.921 -8.545,19.477 -19.518,19.548 -10.881,0.08 -19.792,-8.421 -20.057,-19.144 -0.27,-11.125 8.674,-20.011 20.057,-19.935 11.014,0.077 19.534,8.605 19.518,19.531 z m -10.777,-0.422 c -1.152,-4.896 -4.034,-8.591 -9.534,-8.218 -4.932,0.327 -8.241,3.752 -8.065,8.82 0.187,5.49 3.911,8.723 9.262,8.447 4.97,-0.253 7.702,-3.807 8.337,-9.049 z" /><path
         style="clip-rule:evenodd;fill:#838488;fill-rule:evenodd"
         inkscape:connector-curvature="0"
         id="path53"
         d="m 165.95981,27.259067 c 36.837,0 73.675,0.17 110.509,-0.141 7.724,-0.063 10.309,2.661 10.26,10.198 -0.213,37.387 -0.213,74.780003 0,112.167003 0.049,7.389 -2.287,10.467 -10.133,10.446 -73.656,-0.198 -147.309,-0.185 -220.986996,-0.015 -7.319,0.015 -9.811,-2.767 -9.785,-9.9 0.225,-37.662 0.246,-75.333003 -0.016,-113.004003 -0.059,-7.868 3.054,-9.949 10.501,-9.885 36.539,0.291 73.112996,0.134 109.650996,0.134 z m 0.345,25.498 c -34.05,0 -68.083996,0.106 -102.129996,-0.107 -5.377,-0.035 -7.195,1.381 -7.136,6.985 0.28,27.062 0.318,54.131003 -0.011,81.192003 -0.083,6.285 1.743,7.976 7.992,7.956 67.514996,-0.221 135.037996,-0.221 202.568996,0 6.249,0.013 8.053,-1.684 7.969,-7.956 -0.32,-26.778 -0.351,-53.578003 0.024,-80.355003 0.074,-6.37 -1.812,-7.906 -7.993,-7.857 -33.766,0.298 -67.516,0.142 -101.284,0.142 z m -0.487,-10.708 c 33.754,0 67.509,0.058 101.259,-0.104 2.63,-0.015 7.667,1.945 7.569,-2.075 -0.074,-3.63 -5.104,-1.832 -7.851,-1.84 -66.939,-0.111 -133.885,-0.091 -200.841996,-0.083 -1.95,0 -3.911,0.021 -5.861,0.077 -1.167,0.036 -2.331,0.432 -2.458,1.714 -0.172,1.867 1.307,2.186 2.74,2.249 1.949,0.079 3.911,0.063 5.868,0.063 33.18,0.007 66.368996,0.007 99.575996,-10e-4 z" /><path
         style="clip-rule:evenodd;fill:#fafcfb;fill-rule:evenodd"
         inkscape:connector-curvature="0"
         id="path69"
         d="m 174.73181,258.72207 c -3.008,0 -6.014,0 -9.55,0 1.886,-6.786 6.413,-10.324 12.573,-11.683 7.006,-1.551 13.139,0.489 17.832,6.091 1.183,1.417 3.221,3.023 1.912,4.941 -0.651,0.936 -2.986,0.928 -4.559,0.936 -2.463,0.019 -4.94,-0.299 -7.417,-0.48 -0.905,-4.077 -0.516,-9.711 -6.87,-8.897 -5.216,0.67 -4.423,5.241 -3.921,9.092 z" /><path
         style="clip-rule:evenodd;fill:#7bc9be;fill-rule:evenodd"
         inkscape:connector-curvature="0"
         id="path71"
         d="m 174.73181,258.72207 c -0.502,-3.851 -1.295,-8.422 3.922,-9.093 6.354,-0.813 5.965,4.82 6.87,8.897 -3.6,0.069 -7.192,0.132 -10.792,0.196 z" /><path
         style="clip-rule:evenodd;fill:#fafcfb;fill-rule:evenodd"
         inkscape:connector-curvature="0"
         id="path73"
         d="m 250.67481,258.85107 c -2.859,-0.214 -7.089,1.848 -8.223,-1.226 -1.23,-3.324 2.773,-5.547 5.235,-7.621 8.206,-6.899 24.885,-2.98 26.692,8.569 -4.112,0.856 -8.21,0.582 -12.323,0.085 -0.366,-4.5 -0.711,-9.341 -7.054,-8.599 -5.422,0.645 -4.954,4.826 -4.327,8.792 z" /><path
         style="clip-rule:evenodd;fill:#7bc9be;fill-rule:evenodd"
         inkscape:connector-curvature="0"
         id="path75"
         d="m 250.67481,258.85107 c -0.627,-3.966 -1.095,-8.146 4.328,-8.791 6.343,-0.742 6.688,4.099 7.054,8.599 -3.786,0.063 -7.577,0.134 -11.382,0.192 z" /><path
         style="clip-rule:evenodd;fill:#fafcfb;fill-rule:evenodd"
         inkscape:connector-curvature="0"
         id="path77"
         d="m 119.49881,253.03207 c -0.768,5.145 -3.833,8.408 -8.816,8.371 -5,-0.026 -8.345,-3.263 -8.345,-8.506 0.015,-5.646 3.502,-9.016 8.95,-8.754 4.97,0.249 7.776,3.794 8.211,8.889 z" /><path
         style="clip-rule:evenodd;fill:#fafcfb;fill-rule:evenodd"
         inkscape:connector-curvature="0"
         id="path79"
         d="m 65.109814,252.35407 c -0.636,5.242 -3.368,8.797 -8.337,9.05 -5.351,0.275 -9.075,-2.957 -9.262,-8.447 -0.176,-5.068 3.133,-8.493 8.065,-8.82 5.501,-0.374 8.382,3.32 9.534,8.217 z" /><path
         style="clip-rule:evenodd;fill:#fafcfb;fill-rule:evenodd"
         inkscape:connector-curvature="0"
         id="path83"
         d="m 165.81781,42.049067 c -33.207,0.008 -66.395996,0.008 -99.576996,0 -1.957,0 -3.918,0.015 -5.868,-0.063 -1.433,-0.063 -2.912,-0.382 -2.74,-2.249 0.128,-1.282 1.292,-1.678 2.458,-1.714 1.95,-0.056 3.911,-0.077 5.861,-0.077 66.957996,-0.007 133.902996,-0.028 200.841996,0.083 2.746,0.008 7.776,-1.79 7.851,1.84 0.098,4.021 -4.939,2.06 -7.569,2.075 -33.749,0.163 -67.504,0.105 -101.258,0.105 z" /><path
         style="clip-rule:evenodd;fill:#95c5cd;fill-opacity:1;fill-rule:evenodd"
         inkscape:connector-curvature="0"
         id="path95"
         d="m 145.37781,70.718049 c 18.711,0 37.406,0.022 56.109,-0.013 3.803,-0.015 7.103,-0.283 7.072,5.377 -0.045,5.86 -3.692,5.103 -7.304,5.11 -37.665,0 -75.354,-0.007 -113.033996,0.043 -3.847,0 -7.148,0.247 -7.103,-5.372 0.049,-5.782 3.646,-5.158 7.338,-5.151 18.973996,0.02 37.957996,0.006 56.921996,0.006 z" /><path
         style="clip-rule:evenodd;fill:#95c5cd;fill-opacity:1;fill-rule:evenodd"
         inkscape:connector-curvature="0"
         id="path97"
         d="m 124.96981,112.91706 c -12.275,0 -24.568,-0.072 -36.855996,0.036 -3.941,0.027 -7.023,0.071 -7.04,-5.464 -0.014,-5.011 1.991,-6.051 6.497,-6.028 24.855996,0.163 49.718996,0.155 74.541996,0 4.816,-0.028 7.212,1.167 7.163,6.524 -0.029,5.952 -3.937,4.919 -7.455,4.932 -12.277,0.029 -24.571,0.007 -36.851,0 z" /><path
         style="clip-rule:evenodd;fill:#7bc9be;fill-rule:evenodd"
         inkscape:connector-curvature="0"
         id="path99"
         d="m 219.68181,92.317067 c -0.03,-11.769 8.161,-19.9 19.979,-19.844 11.589,0.065 20.232,8.549 20.308,19.957 0.082,10.629003 -9.777,20.445003 -20.387,20.312003 -11.3,-0.142 -19.87,-8.933 -19.9,-20.425003 z m 19.826,9.045003 c 5.361,-0.595 8.846,-3.334003 8.974,-8.996003 0.112,-5.787 -3.754,-8.916 -8.882,-9.101 -5.402,-0.204 -9.141,3.545 -9.11,8.882 0.014,5.194 3.286,8.711003 9.018,9.215003 z" /><path
         style="clip-rule:evenodd;fill:#95c5cd;fill-opacity:1;fill-rule:evenodd"
         inkscape:connector-curvature="0"
         id="path101"
         d="m 114.13981,85.648197 c 8.909,0 17.819,0.127 26.715,-0.058 4.016,-0.084 5.328,1.508 5.31,5.415 0,3.963 -0.688,6.192 -5.434,6.143 -18.085,-0.198 -36.179,-0.164 -54.267996,-0.016 -4.049,0.036 -5.31,-1.549 -5.31,-5.413 0,-3.935 0.654,-6.306 5.437,-6.165 9.168,0.285 18.358996,0.087 27.549996,0.094 z" /><path
         style="clip-rule:evenodd;fill:#95c5cd;fill-opacity:1;fill-rule:evenodd"
         inkscape:connector-curvature="0"
         id="path103"
         d="m 178.21981,97.052267 c -7.787,0 -15.574,-0.198 -23.348,0.077 -4.688,0.17 -5.452,-2.116 -5.438,-6.099 0,-3.871 1.231,-5.479 5.263,-5.443 16.105,0.143 32.227,0.17 48.332,-0.013 4.658,-0.051 5.516,2.101 5.501,6.115 0,3.892 -1.311,5.512 -5.313,5.42 -8.334,-0.172 -16.664,-0.057 -24.997,-0.057 z" /><path
         style="clip-rule:evenodd;fill:#95c5cd;fill-opacity:1;fill-rule:evenodd"
         inkscape:connector-curvature="0"
         id="path105"
         d="m 191.57881,112.91708 c -3.592,0.007 -7.207,-0.219 -10.791,0.056 -4.593,0.375 -6.355,-1.237 -6.311,-6.057 0.067,-4.685 2.246,-5.507 6.167,-5.42 7.478,0.168 14.969,0.219 22.42,-0.015 4.65,-0.142 5.467,2.145 5.467,6.135 -0.038,3.899 -1.339,5.57 -5.329,5.344 -3.866,-0.218 -7.761,-0.043 -11.623,-0.043 z" /><path
         style="clip-rule:evenodd;fill:#7bc9be;fill-rule:evenodd"
         inkscape:connector-curvature="0"
         id="path107"
         d="m 98.471814,128.33807 c -3.882,0 -7.773,-0.122 -11.649,0.036 -3.585,0.155 -5.688,-0.702 -5.781,-4.955 -0.094,-4.458 1.698,-5.789 5.919,-5.654 7.758,0.241 15.530996,0.169 23.287996,0.021 3.578,-0.063 5.718,0.602 5.763,4.911 0.059,4.423 -1.654,5.959 -5.89,5.683 -3.875,-0.24 -7.77,-0.042 -11.649996,-0.042 z" /><path
         style="clip-rule:evenodd;fill:#fafcfb;fill-rule:evenodd"
         inkscape:connector-curvature="0"
         id="path109"
         d="m 239.50781,101.36207 c -5.732,-0.503 -9.004,-4.021003 -9.019,-9.215003 -0.03,-5.336 3.708,-9.086 9.11,-8.882 5.128,0.186 8.994,3.314 8.882,9.101 -0.127,5.661 -3.611,8.401003 -8.973,8.996003 z" /><path
         style="clip-rule:evenodd;fill:#838488;fill-rule:evenodd"
         inkscape:connector-curvature="0"
         id="path111"
         d="m 166.41581,293.51207 c -48.302,0 -96.604996,0.016 -144.900996,0 -10.685,0 -11.403,-0.722 -11.414,-11.429 -0.037,-20.098 0.172,-40.196 -0.098,-60.294 -0.1039998,-7.228 2.665,-9.938 9.894,-9.845 22.879,0.274 45.773,0.007 68.667,0.191 4.828,0.036 8.099,-0.687 10.748,-5.586 4.459996,-8.278 12.800996,-8.675 21.232996,-8.49 3.345,0.077 8.816,2.088 9.762,-1.847 1.389,-5.776 0.887,-12.222 0.034,-18.217 -0.374,-2.548 -4.408,-1.422 -6.796,-1.437 -27.907996,-0.064 -55.838996,-0.24 -83.747996,0.092 -7.631,0.099 -10.374,-2.476 -10.344,-10.135 0.221,-48.858 0.21,-97.709003 0.037,-146.568003 -0.037,-7.119 2.44,-9.9629999 9.76,-9.947 85.416996,0.153 170.848996,0.153 256.282996,0.011 7.364,-0.011 9.698,2.965 9.668,10.042 -0.164,48.859 -0.198,97.717003 0.03,146.577003 0.037,7.755 -2.787,10.118 -10.351,10.027 -28.196,-0.34 -56.404,0.086 -84.594,-0.298 -6.825,-0.092 -9.879,1.535 -8.749,8.647 0.337,2.18 0.276,4.487 0.007,6.687 -0.666,5.289 1.729,6.653 6.702,6.611 7.399,-0.076 17.008,-2.887 21.289,4.042 7.57,12.213 18.412,9.63 29.051,9.681 18.146,0.077 36.294,0.233 54.436,-0.085 7.306,-0.128 9.954,2.752 9.856,9.885 -0.231,20.383 -0.314,40.764 0.045,61.14 0.143,7.995 -2.738,10.728 -10.777,10.678 -48.573,-0.276 -97.157,-0.133 -145.73,-0.133 z m -0.171,-70.239 c -45.481,0 -90.961996,0.12 -136.446996,-0.127 -6.474,-0.043 -8.731,1.593 -8.5,8.344 0.51,14.487 0.308,29.015 0.075,43.514 -0.075,5.063 0.887,7.446 6.803,7.441 92.070996,-0.172 184.156996,-0.159 276.218996,-0.043 5.263,0.006 7.402,-1.284 7.246,-7.021 -0.391,-14.501 -0.517,-29.029 0.04,-43.517 0.282,-7.204 -2.218,-8.775 -9.014,-8.733 -45.474,0.285 -90.962,0.142 -136.422,0.142 z m 1.617,-202.189003 c -39.626,0 -79.265996,0.146 -118.871996,-0.148 -6.497,-0.047 -8.457,1.49 -8.428,8.263 0.345,42.693 0.345,85.389003 0,128.083003 -0.045,6.879 2.215,8.203 8.518,8.188 78.687996,-0.191 157.392996,-0.211 236.078996,0.022 6.852,0.021 8.947,-1.643 8.895,-8.734 -0.346,-42.419 -0.359,-84.837003 0,-127.249003 0.077,-7.268 -2.306,-8.633 -9.005,-8.574 -39.06,0.307 -78.127,0.149 -117.187,0.149 z m 6.57,155.546003 c -18.066,0 -17.909,0 -16.831,16.412 0.262,4.041 1.646,5.284 5.509,5.193 7.523,-0.198 15.062,-0.091 22.583,-0.049 2.757,0.014 4.564,-0.432 5.201,-3.835 2.698,-14.6 0.363,-17.722 -13.954,-17.722 -0.823,10e-4 -1.661,10e-4 -2.508,10e-4 z m 47.57,34.995 c -0.082,-0.494 -0.153,-0.99 -0.247,-1.479 -36.92,0 -73.832,0 -110.729,0 0,0.488 0,0.984 0.016,1.479 36.994,0 73.966,0 110.96,0 z m -75.041,-24.606 c -2.152,-2.923 1.864,-9.639 -2.607,-9.554 -5.198,0.099 -2.298,6.738 -2.425,10.354 -0.094,3.312 -2.433,9.701 2.349,9.554 4.63,-0.149 0.872,-6.574 2.683,-10.354 z" /><path
         style="clip-rule:evenodd;fill:#fafcfb;fill-rule:evenodd"
         inkscape:connector-curvature="0"
         id="path129"
         d="m 166.24481,223.27307 c 45.46,0 90.948,0.143 136.423,-0.142 6.796,-0.042 9.296,1.529 9.014,8.733 -0.557,14.487 -0.431,29.016 -0.04,43.517 0.156,5.736 -1.983,7.026 -7.246,7.021 -92.062,-0.116 -184.148,-0.129 -276.218996,0.043 -5.916,0.005 -6.878,-2.378 -6.803,-7.441 0.232,-14.499 0.435,-29.026 -0.075,-43.514 -0.231,-6.751 2.025,-8.387 8.5,-8.344 45.483,0.248 90.963996,0.127 136.445996,0.127 z m 15.747,47.028 c 8.063,0 16.136,-0.108 24.181,0.042 3.384,0.063 4.926,-0.813 5.146,-4.605 0.872,-15.733 -12.84,-30.163 -29.144,-30.312 -16.679,-0.147 -29.952,13.36 -29.573,29.545 0.09,4.74 2.064,5.483 6.039,5.38 7.775,-0.199 15.56,-0.05 23.351,-0.05 z m 75.711,0 c 7.783,0 15.574,-0.228 23.343,0.076 4.654,0.193 6.249,-1.188 6.233,-6.056 -0.033,-16.257 -13.479,-29.35 -30.205,-28.89 -15.911,0.433 -29.219,14.628 -28.467,30.107 0.169,3.557 1.276,4.909 4.905,4.825 8.069,-0.203 16.122,-0.062 24.191,-0.062 z m -146.879,2.023 c 11.043,-0.05 19.691,-8.529 19.781,-19.397 0.108,-11.082 -8.988,-19.874 -20.342,-19.681 -10.962996,0.185 -19.356996,8.865 -19.203996,19.837 0.171,11.003 8.673,19.284 19.764996,19.241 z m -34.936996,-19.548 c 0.016,-10.927 -8.504,-19.454 -19.518,-19.53 -11.383,-0.076 -20.327,8.81 -20.057,19.935 0.266,10.723 9.176,19.224 20.057,19.144 10.973,-0.072 19.504,-8.628 19.518,-19.549 z" /><path
         style="clip-rule:evenodd;fill:#fafcfb;fill-rule:evenodd"
         inkscape:connector-curvature="0"
         id="path131"
         d="m 167.86181,21.084067 c 39.061,0 78.127,0.157 117.187,-0.148 6.699,-0.059 9.082,1.306 9.005,8.574 -0.359,42.411 -0.346,84.830003 0,127.249003 0.053,7.091 -2.043,8.754 -8.895,8.734 -78.686,-0.233 -157.391,-0.214 -236.078996,-0.022 -6.302,0.016 -8.562,-1.308 -8.518,-8.188 0.345,-42.694 0.345,-85.390003 0,-128.083003 -0.029,-6.773 1.931,-8.31 8.428,-8.263 39.606,0.293 79.245996,0.147 118.871996,0.147 z m -1.902,6.175 c -36.538,0 -73.112996,0.157 -109.650996,-0.133 -7.447,-0.064 -10.56,2.017 -10.501,9.885 0.262,37.671 0.241,75.342003 0.016,113.004003 -0.026,7.133 2.465,9.915 9.785,9.9 73.677996,-0.17 147.330996,-0.184 220.986996,0.015 7.846,0.021 10.182,-3.058 10.133,-10.446 -0.213,-37.387 -0.213,-74.780003 0,-112.167003 0.049,-7.537 -2.536,-10.261 -10.26,-10.198 -36.834,0.31 -73.672,0.14 -110.509,0.14 z" /><path
         style="clip-rule:evenodd;fill:#fafcfb;fill-rule:evenodd"
         inkscape:connector-curvature="0"
         id="path135"
         d="m 222.00181,211.62507 c -36.994,0 -73.967,0 -110.96,0 -0.016,-0.494 -0.016,-0.99 -0.016,-1.479 36.897,0 73.809,0 110.729,0 0.094,0.489 0.165,0.985 0.247,1.479 z" /><path
         style="clip-rule:evenodd;fill:#fafcfb;fill-rule:evenodd"
         inkscape:connector-curvature="0"
         id="path137"
         d="m 146.96081,187.01907 c -1.812,3.78 1.946,10.205 -2.684,10.354 -4.781,0.147 -2.442,-6.242 -2.349,-9.554 0.127,-3.616 -2.773,-10.256 2.425,-10.354 4.473,-0.085 0.456,6.631 2.608,9.554 z" /><path
         style="clip-rule:evenodd;fill:#838488;fill-rule:evenodd"
         inkscape:connector-curvature="0"
         id="path153"
         d="m 181.99181,270.30107 c -7.791,0 -15.575,-0.148 -23.351,0.05 -3.975,0.104 -5.949,-0.64 -6.039,-5.38 -0.379,-16.185 12.895,-29.692 29.573,-29.545 16.304,0.148 30.016,14.578 29.144,30.312 -0.221,3.792 -1.763,4.669 -5.146,4.605 -8.046,-0.151 -16.118,-0.042 -24.181,-0.042 z m -7.26,-11.579 c 3.601,-0.063 7.192,-0.127 10.792,-0.195 2.477,0.182 4.954,0.499 7.417,0.48 1.572,-0.008 3.907,0 4.559,-0.936 1.309,-1.918 -0.729,-3.524 -1.912,-4.941 -4.693,-5.602 -10.826,-7.642 -17.832,-6.091 -6.16,1.358 -10.688,4.896 -12.573,11.683 3.535,0 6.541,0 9.549,0 z" /><path
         style="clip-rule:evenodd;fill:#838488;fill-rule:evenodd"
         inkscape:connector-curvature="0"
         id="path155"
         d="m 257.70281,270.30107 c -8.068,0 -16.121,-0.141 -24.19,0.063 -3.629,0.084 -4.736,-1.269 -4.905,-4.825 -0.752,-15.479 12.556,-29.675 28.467,-30.107 16.727,-0.46 30.172,12.633 30.205,28.89 0.016,4.867 -1.579,6.249 -6.233,6.056 -7.77,-0.305 -15.561,-0.077 -23.344,-0.077 z m 4.354,-11.643 c 4.113,0.497 8.211,0.771 12.323,-0.085 -1.808,-11.55 -18.486,-15.469 -26.692,-8.569 -2.462,2.074 -6.466,4.297 -5.235,7.621 1.134,3.073 5.363,1.012 8.223,1.226 3.804,-0.058 7.595,-0.129 11.381,-0.193 z" /><path
         style="clip-rule:evenodd;fill:#838488;fill-rule:evenodd"
         inkscape:connector-curvature="0"
         id="path157"
         d="m 110.82381,272.32407 c -11.091996,0.043 -19.593996,-8.238 -19.765996,-19.241 -0.153,-10.972 8.241,-19.652 19.203996,-19.837 11.354,-0.193 20.451,8.599 20.342,19.681 -0.089,10.868 -8.736,19.347 -19.78,19.397 z m 8.675,-19.292 c -0.435,-5.095 -3.241,-8.641 -8.211,-8.889 -5.447,-0.262 -8.935,3.107 -8.95,8.754 0,5.243 3.345,8.479 8.345,8.506 4.983,0.037 8.048,-3.226 8.816,-8.371 z" /><path
         style="clip-rule:evenodd;fill:#838488;fill-rule:evenodd"
         inkscape:connector-curvature="0"
         id="path159"
         d="m 75.886814,252.77607 c -0.014,10.921 -8.545,19.477 -19.518,19.548 -10.881,0.08 -19.792,-8.421 -20.057,-19.144 -0.27,-11.125 8.674,-20.011 20.057,-19.935 11.014,0.077 19.534,8.605 19.518,19.531 z m -10.777,-0.422 c -1.152,-4.896 -4.034,-8.591 -9.534,-8.218 -4.932,0.327 -8.241,3.752 -8.065,8.82 0.187,5.49 3.911,8.723 9.262,8.447 4.97,-0.253 7.702,-3.807 8.337,-9.049 z" /><path
         style="clip-rule:evenodd;fill:#838488;fill-rule:evenodd"
         inkscape:connector-curvature="0"
         id="path161"
         d="m 165.95981,27.259067 c 36.837,0 73.675,0.17 110.509,-0.141 7.724,-0.063 10.309,2.661 10.26,10.198 -0.213,37.387 -0.213,74.780003 0,112.167003 0.049,7.389 -2.287,10.467 -10.133,10.446 -73.656,-0.198 -147.309,-0.185 -220.986996,-0.015 -7.319,0.015 -9.811,-2.767 -9.785,-9.9 0.225,-37.662 0.246,-75.333003 -0.016,-113.004003 -0.059,-7.868 3.054,-9.949 10.501,-9.885 36.539,0.291 73.112996,0.134 109.650996,0.134 z m 0.345,25.498 c -34.05,0 -68.083996,0.106 -102.129996,-0.107 -5.377,-0.035 -7.195,1.381 -7.136,6.985 0.28,27.062 0.318,54.131003 -0.011,81.192003 -0.083,6.285 1.743,7.976 7.992,7.956 67.514996,-0.221 135.037996,-0.221 202.568996,0 6.249,0.013 8.053,-1.684 7.969,-7.956 -0.32,-26.778 -0.351,-53.578003 0.024,-80.355003 0.074,-6.37 -1.812,-7.906 -7.993,-7.857 -33.766,0.298 -67.516,0.142 -101.284,0.142 z m -0.487,-10.708 c 33.754,0 67.509,0.058 101.259,-0.104 2.63,-0.015 7.667,1.945 7.569,-2.075 -0.074,-3.63 -5.104,-1.832 -7.851,-1.84 -66.939,-0.111 -133.885,-0.091 -200.841996,-0.083 -1.95,0 -3.911,0.021 -5.861,0.077 -1.167,0.036 -2.331,0.432 -2.458,1.714 -0.172,1.867 1.307,2.186 2.74,2.249 1.949,0.079 3.911,0.063 5.868,0.063 33.18,0.007 66.368996,0.007 99.575996,-10e-4 z" /><path
         style="clip-rule:evenodd;fill:#fafcfb;fill-rule:evenodd"
         inkscape:connector-curvature="0"
         id="path177"
         d="m 174.73181,258.72207 c -3.008,0 -6.014,0 -9.55,0 1.886,-6.786 6.413,-10.324 12.573,-11.683 7.006,-1.551 13.139,0.489 17.832,6.091 1.183,1.417 3.221,3.023 1.912,4.941 -0.651,0.936 -2.986,0.928 -4.559,0.936 -2.463,0.019 -4.94,-0.299 -7.417,-0.48 -0.905,-4.077 -0.516,-9.711 -6.87,-8.897 -5.216,0.67 -4.423,5.241 -3.921,9.092 z" /><path
         style="clip-rule:evenodd;fill:#95c5cd;fill-opacity:1;fill-rule:evenodd"
         inkscape:connector-curvature="0"
         id="path179"
         d="m 174.73181,258.72207 c -0.502,-3.851 -1.295,-8.422 3.922,-9.093 6.354,-0.813 5.965,4.82 6.87,8.897 -3.6,0.069 -7.192,0.132 -10.792,0.196 z" /><path
         style="clip-rule:evenodd;fill:#fafcfb;fill-rule:evenodd"
         inkscape:connector-curvature="0"
         id="path181"
         d="m 250.67481,258.85107 c -2.859,-0.214 -7.089,1.848 -8.223,-1.226 -1.23,-3.324 2.773,-5.547 5.235,-7.621 8.206,-6.899 24.885,-2.98 26.692,8.569 -4.112,0.856 -8.21,0.582 -12.323,0.085 -0.366,-4.5 -0.711,-9.341 -7.054,-8.599 -5.422,0.645 -4.954,4.826 -4.327,8.792 z" /><path
         style="clip-rule:evenodd;fill:#95c5cd;fill-opacity:1;fill-rule:evenodd"
         inkscape:connector-curvature="0"
         id="path183"
         d="m 250.67481,258.85107 c -0.627,-3.966 -1.095,-8.146 4.328,-8.791 6.343,-0.742 6.688,4.099 7.054,8.599 -3.786,0.063 -7.577,0.134 -11.382,0.192 z" /><path
         style="clip-rule:evenodd;fill:#fafcfb;fill-rule:evenodd"
         inkscape:connector-curvature="0"
         id="path185"
         d="m 119.49881,253.03207 c -0.768,5.145 -3.833,8.408 -8.816,8.371 -5,-0.026 -8.345,-3.263 -8.345,-8.506 0.015,-5.646 3.502,-9.016 8.95,-8.754 4.97,0.249 7.776,3.794 8.211,8.889 z" /><path
         style="clip-rule:evenodd;fill:#fafcfb;fill-rule:evenodd"
         inkscape:connector-curvature="0"
         id="path187"
         d="m 65.109814,252.35407 c -0.636,5.242 -3.368,8.797 -8.337,9.05 -5.351,0.275 -9.075,-2.957 -9.262,-8.447 -0.176,-5.068 3.133,-8.493 8.065,-8.82 5.501,-0.374 8.382,3.32 9.534,8.217 z" /><path
         style="clip-rule:evenodd;fill:#fafcfb;fill-rule:evenodd"
         inkscape:connector-curvature="0"
         id="path191"
         d="m 165.81781,42.049067 c -33.207,0.008 -66.395996,0.008 -99.576996,0 -1.957,0 -3.918,0.015 -5.868,-0.063 -1.433,-0.063 -2.912,-0.382 -2.74,-2.249 0.128,-1.282 1.292,-1.678 2.458,-1.714 1.95,-0.056 3.911,-0.077 5.861,-0.077 66.957996,-0.007 133.902996,-0.028 200.841996,0.083 2.746,0.008 7.776,-1.79 7.851,1.84 0.098,4.021 -4.939,2.06 -7.569,2.075 -33.749,0.163 -67.504,0.105 -101.258,0.105 z" /><path
         style="clip-rule:evenodd;fill:#95c5cd;fill-opacity:1;fill-rule:evenodd"
         inkscape:connector-curvature="0"
         id="path207"
         d="m 219.68181,92.317067 c -0.03,-11.769 8.161,-19.9 19.979,-19.844 11.589,0.065 20.232,8.549 20.308,19.957 0.082,10.629003 -9.777,20.445003 -20.387,20.312003 -11.3,-0.142 -19.87,-8.933 -19.9,-20.425003 z m 19.826,9.045003 c 5.361,-0.595 8.846,-3.334003 8.974,-8.996003 0.112,-5.787 -3.754,-8.916 -8.882,-9.101 -5.402,-0.204 -9.141,3.545 -9.11,8.882 0.014,5.194 3.286,8.711003 9.018,9.215003 z" /><path
         style="clip-rule:evenodd;fill:#95c5cd;fill-opacity:1;fill-rule:evenodd"
         inkscape:connector-curvature="0"
         id="path215"
         d="m 98.471814,128.33807 c -3.882,0 -7.773,-0.122 -11.649,0.036 -3.585,0.155 -5.688,-0.702 -5.781,-4.955 -0.094,-4.458 1.698,-5.789 5.919,-5.654 7.758,0.241 15.530996,0.169 23.287996,0.021 3.578,-0.063 5.718,0.602 5.763,4.911 0.059,4.423 -1.654,5.959 -5.89,5.683 -3.875,-0.24 -7.77,-0.042 -11.649996,-0.042 z" /><path
         style="clip-rule:evenodd;fill:#fafcfb;fill-rule:evenodd"
         inkscape:connector-curvature="0"
         id="path217"
         d="m 239.50781,101.36207 c -5.732,-0.503 -9.004,-4.021003 -9.019,-9.215003 -0.03,-5.336 3.708,-9.086 9.11,-8.882 5.128,0.186 8.994,3.314 8.882,9.101 -0.127,5.661 -3.611,8.401003 -8.973,8.996003 z" /></g><rect
       style="opacity:1;fill:#95c5cd;fill-opacity:1;stroke:none;stroke-width:20;stroke-linecap:butt;stroke-linejoin:miter;stroke-miterlimit:4;stroke-dasharray:none;stroke-opacity:1"
       id="rect4241"
       width="370.35504"
       height="5"
       x="-23.153238"
       y="305.89035" /></g></svg>